#define wifi_50_width 10
#define wifi_50_height 10
static unsigned char wifi_50_bits[] = {
   0x00, 0x00, 0x00, 0x00, 0x00, 0x00, 0x00, 0x00, 0x00, 0x00, 0x78, 0x00,
   0x84, 0x00, 0x30, 0x00, 0x30, 0x00, 0x00, 0x00 };
