#define wifi_75_width 10
#define wifi_75_height 10
static unsigned char wifi_75_bits[] = {
   0x00, 0x00, 0x00, 0x00, 0x00, 0x00, 0xfc, 0x00, 0x02, 0x01, 0x78, 0x00,
   0x84, 0x00, 0x30, 0x00, 0x30, 0x00, 0x00, 0x00 };
