#define Untitled_width 10
#define Untitled_height 10
static unsigned char Untitled_bits[] = {
   0x00, 0x00, 0x78, 0x00, 0xfc, 0x00, 0xce, 0x01, 0x86, 0x01, 0x86, 0x01,
   0xce, 0x01, 0xfc, 0x00, 0x78, 0x00, 0x00, 0x00 };
