#define op1_notConnected_width 10
#define op1_notConnected_height 10
static unsigned char op1_notConnected_bits[] = {
   0x01, 0x02, 0x7a, 0x01, 0xfc, 0x00, 0xce, 0x01, 0xb6, 0x01, 0xb6, 0x01,
   0xce, 0x01, 0xfc, 0x00, 0x7a, 0x01, 0x01, 0x02 };
