#define wifi_25_width 10
#define wifi_25_height 10
static unsigned char wifi_25_bits[] = {
   0x00, 0x00, 0x00, 0x00, 0x00, 0x00, 0x00, 0x00, 0x00, 0x00, 0x00, 0x00,
   0x00, 0x00, 0x30, 0x00, 0x30, 0x00, 0x00, 0x00 };
