#define wifi_notConnected_width 10
#define wifi_notConnected_height 10
static unsigned char wifi_notConnected_bits[] = {
   0x01, 0x02, 0x02, 0x01, 0x84, 0x00, 0x48, 0x00, 0x30, 0x00, 0x30, 0x00,
   0x48, 0x00, 0xb4, 0x00, 0x32, 0x01, 0x01, 0x02 };
